<svg width="72" height="72" viewBox="0 0 72 72" fill="none" xmlns="http://www.w3.org/2000/svg">
<rect width="72" height="72" rx="16" fill="#F6F7F9"/>
<path d="M46 24H43V23C43 22.7348 42.8946 22.4804 42.7071 22.2929C42.5196 22.1054 42.2652 22 42 22C41.7348 22 41.4804 22.1054 41.2929 22.2929C41.1054 22.4804 41 22.7348 41 23V24H31V23C31 22.7348 30.8946 22.4804 30.7071 22.2929C30.5196 22.1054 30.2652 22 30 22C29.7348 22 29.4804 22.1054 29.2929 22.2929C29.1054 22.4804 29 22.7348 29 23V24H26C25.4696 24 24.9609 24.2107 24.5858 24.5858C24.2107 24.9609 24 25.4696 24 26V46C24 46.5304 24.2107 47.0391 24.5858 47.4142C24.9609 47.7893 25.4696 48 26 48H46C46.5304 48 47.0391 47.7893 47.4142 47.4142C47.7893 47.0391 48 46.5304 48 46V26C48 25.4696 47.7893 24.9609 47.4142 24.5858C47.0391 24.2107 46.5304 24 46 24ZM29 26V27C29 27.2652 29.1054 27.5196 29.2929 27.7071C29.4804 27.8946 29.7348 28 30 28C30.2652 28 30.5196 27.8946 30.7071 27.7071C30.8946 27.5196 31 27.2652 31 27V26H41V27C41 27.2652 41.1054 27.5196 41.2929 27.7071C41.4804 27.8946 41.7348 28 42 28C42.2652 28 42.5196 27.8946 42.7071 27.7071C42.8946 27.5196 43 27.2652 43 27V26H46V30H26V26H29ZM46 46H26V32H46V46Z" fill="#9810FA"/>
</svg>
