<svg width="32" height="32" viewBox="0 0 32 32" fill="none" xmlns="http://www.w3.org/2000/svg">
<path d="M14.7333 29.3324C9.3593 29.3324 6.6723 29.3324 5.0028 27.5275C3.33331 25.7226 3.33331 22.8178 3.33331 17.008V16.3233C3.33331 10.5136 3.33331 7.60873 5.0028 5.80388C6.6723 3.99902 9.3593 3.99902 14.7333 3.99902H17.2666C22.6407 3.99902 25.3277 3.99902 26.9972 5.80388C28.5689 7.50306 28.6609 10.1772 28.6663 15.3324V17.3324" stroke="#415B2E" stroke-width="2" stroke-linecap="round" stroke-linejoin="round"/>
<path d="M28 24.6663L17.3333 24.6663M28 24.6663C28 25.6 25.3409 27.3443 24.6666 27.9997M28 24.6663C28 23.7327 25.3409 21.9884 24.6666 21.333" stroke="#415B2E" stroke-width="2" stroke-linecap="round" stroke-linejoin="round"/>
<path d="M24 2.66602V5.33268M7.99997 2.66602V5.33268" stroke="#415B2E" stroke-width="2" stroke-linecap="round" stroke-linejoin="round"/>
<path d="M3.99997 10.666H28" stroke="#415B2E" stroke-width="2" stroke-linecap="round" stroke-linejoin="round"/>
</svg>
