<svg width="32" height="32" viewBox="0 0 32 32" fill="none" xmlns="http://www.w3.org/2000/svg">
<path d="M24 2.66602V5.33268M8 2.66602V5.33268" stroke="#415B2E" stroke-width="2" stroke-linecap="round" stroke-linejoin="round"/>
<path d="M14.7333 29.3324C9.35932 29.3324 6.67231 29.3324 5.00282 27.5275C3.33333 25.7226 3.33333 22.8178 3.33333 17.008V16.3233C3.33333 10.5136 3.33333 7.60873 5.00282 5.80388C6.67231 3.99902 9.35932 3.99902 14.7333 3.99902H17.2667C22.6407 3.99902 25.3277 3.99902 26.9972 5.80388C28.5689 7.50306 28.6609 10.1772 28.6663 15.3324V17.3324" stroke="#415B2E" stroke-width="2" stroke-linecap="round" stroke-linejoin="round"/>
<path d="M17.3333 23.3324L28 23.3324M17.3333 23.3324C17.3333 24.266 19.9924 26.0103 20.6667 26.6657M17.3333 23.3324C17.3333 22.3987 19.9924 20.6544 20.6667 19.999" stroke="#415B2E" stroke-width="2" stroke-linecap="round" stroke-linejoin="round"/>
<path d="M4 10.666H28" stroke="#415B2E" stroke-width="2" stroke-linecap="round" stroke-linejoin="round"/>
</svg>
