<svg width="72" height="72" viewBox="0 0 72 72" fill="none" xmlns="http://www.w3.org/2000/svg">
<rect width="72" height="72" rx="16" fill="#F6F7F9"/>
<path d="M34.6558 39.7401C35.9961 38.8479 37.0136 37.548 37.558 36.0327C38.1023 34.5174 38.1445 32.8671 37.6785 31.326C37.2124 29.7848 36.2627 28.4346 34.9699 27.4749C33.677 26.5152 32.1097 25.9971 30.4996 25.9971C28.8895 25.9971 27.3221 26.5152 26.0293 27.4749C24.7365 28.4346 23.7868 29.7848 23.3207 31.326C22.8546 32.8671 22.8969 34.5174 23.4412 36.0327C23.9855 37.548 25.0031 38.8479 26.3433 39.7401C23.9189 40.6337 21.8485 42.2872 20.4408 44.4539C20.3668 44.5638 20.3155 44.6874 20.2897 44.8174C20.2638 44.9474 20.2641 45.0812 20.2905 45.2111C20.3169 45.3409 20.3688 45.4643 20.4432 45.5739C20.5177 45.6835 20.6132 45.7773 20.7242 45.8497C20.8352 45.9221 20.9595 45.9717 21.0898 45.9956C21.2202 46.0196 21.354 46.0174 21.4835 45.9892C21.613 45.9609 21.7355 45.9073 21.8441 45.8312C21.9527 45.7552 22.045 45.6584 22.1158 45.5464C23.0238 44.1498 24.2663 43.0023 25.7304 42.2078C27.1945 41.4134 28.8338 40.9973 30.4996 40.9973C32.1653 40.9973 33.8047 41.4134 35.2688 42.2078C36.7329 43.0023 37.9753 44.1498 38.8833 45.5464C39.03 45.7644 39.2566 45.9159 39.514 45.9681C39.7715 46.0204 40.0392 45.9692 40.2593 45.8257C40.4794 45.6822 40.6341 45.4578 40.6901 45.2011C40.746 44.9444 40.6987 44.676 40.5583 44.4539C39.1507 42.2872 37.0802 40.6337 34.6558 39.7401ZM24.9996 33.5001C24.9996 32.4123 25.3221 31.3489 25.9265 30.4445C26.5308 29.54 27.3898 28.8351 28.3948 28.4188C29.3998 28.0025 30.5057 27.8936 31.5726 28.1058C32.6395 28.318 33.6195 28.8418 34.3887 29.611C35.1579 30.3802 35.6817 31.3602 35.8939 32.4271C36.1061 33.494 35.9972 34.5999 35.5809 35.6049C35.1646 36.6099 34.4597 37.4688 33.5552 38.0732C32.6507 38.6775 31.5874 39.0001 30.4996 39.0001C29.0414 38.9985 27.6434 38.4185 26.6123 37.3874C25.5812 36.3563 25.0012 34.9583 24.9996 33.5001ZM51.2671 45.8376C51.0449 45.9825 50.7744 46.0331 50.5149 45.9785C50.2554 45.9239 50.0282 45.7685 49.8833 45.5464C48.9764 44.149 47.7341 43.0009 46.2697 42.2068C44.8053 41.4127 43.1654 40.9979 41.4996 41.0001C41.2344 41.0001 40.98 40.8948 40.7925 40.7072C40.6049 40.5197 40.4996 40.2653 40.4996 40.0001C40.4996 39.7349 40.6049 39.4805 40.7925 39.293C40.98 39.1055 41.2344 39.0001 41.4996 39.0001C42.3095 38.9993 43.1093 38.8197 43.8418 38.474C44.5743 38.1283 45.2214 37.6251 45.7369 37.0003C46.2523 36.3756 46.6234 35.6447 46.8237 34.8598C47.0239 34.075 47.0483 33.2557 46.8952 32.4603C46.7421 31.6649 46.4152 30.9132 45.9378 30.2589C45.4605 29.6045 44.8445 29.0636 44.134 28.6749C43.4234 28.2862 42.6357 28.0592 41.8272 28.0102C41.0187 27.9612 40.2094 28.0913 39.4571 28.3914C39.3344 28.4444 39.2024 28.4723 39.0687 28.4734C38.9351 28.4746 38.8026 28.4489 38.679 28.3979C38.5555 28.347 38.4434 28.2718 38.3494 28.1768C38.2554 28.0818 38.1814 27.9689 38.1318 27.8449C38.0822 27.7208 38.0579 27.588 38.0605 27.4544C38.063 27.3208 38.0923 27.189 38.1466 27.0669C38.201 26.9448 38.2792 26.8349 38.3768 26.7435C38.4743 26.6522 38.5892 26.5813 38.7146 26.5351C40.4364 25.8484 42.3515 25.8237 44.0905 26.4657C45.8295 27.1078 47.2691 28.3711 48.1316 30.0119C48.9941 31.6527 49.2184 33.5548 48.7612 35.3513C48.304 37.1477 47.1978 38.7112 45.6558 39.7401C48.0802 40.6337 50.1507 42.2872 51.5583 44.4539C51.7032 44.676 51.7539 44.9466 51.6992 45.2061C51.6446 45.4655 51.4892 45.6927 51.2671 45.8376Z" fill="#165DFC"/>
</svg>
