<svg width="30" height="30" viewBox="0 0 30 30" fill="none" xmlns="http://www.w3.org/2000/svg">
<circle cx="2" cy="2" r="2" transform="matrix(1 0 0 -1 20.3334 9.66602)" stroke="#415B2E" stroke-width="2" stroke-linecap="round" stroke-linejoin="round"/>
<path d="M2.69899 13.8579C1.36147 15.3517 1.33269 17.6055 2.56024 19.1909C4.99617 22.337 7.66234 25.0032 10.8085 27.4391C12.3939 28.6667 14.6476 28.6379 16.1414 27.3004C20.1972 23.6689 23.9114 19.8738 27.4959 15.7033C27.8502 15.291 28.0719 14.7856 28.1217 14.2442C28.3417 11.85 28.7936 4.95225 26.9204 3.079C25.0471 1.20576 18.1494 1.6577 15.7552 1.8777C15.2138 1.92745 14.7084 2.14912 14.2961 2.5035C10.1255 6.08796 6.33043 9.80216 2.69899 13.8579Z" stroke="#415B2E" stroke-width="2"/>
<path d="M8.3334 17.666L12.3334 21.666" stroke="#415B2E" stroke-width="2" stroke-linecap="round" stroke-linejoin="round"/>
</svg>
