<svg width="72" height="72" viewBox="0 0 72 72" fill="none" xmlns="http://www.w3.org/2000/svg">
<rect width="72" height="72" rx="16" fill="#F6F7F9"/>
<path d="M39 35H37V27H38C39.0609 27 40.0783 27.4214 40.8284 28.1716C41.5786 28.9217 42 29.9391 42 31C42 31.2652 42.1054 31.5196 42.2929 31.7071C42.4804 31.8946 42.7348 32 43 32C43.2652 32 43.5196 31.8946 43.7071 31.7071C43.8946 31.5196 44 31.2652 44 31C43.9983 29.4092 43.3657 27.884 42.2408 26.7592C41.116 25.6343 39.5908 25.0017 38 25H37V23C37 22.7348 36.8946 22.4804 36.7071 22.2929C36.5196 22.1054 36.2652 22 36 22C35.7348 22 35.4804 22.1054 35.2929 22.2929C35.1054 22.4804 35 22.7348 35 23V25H34C32.4087 25 30.8826 25.6321 29.7574 26.7574C28.6321 27.8826 28 29.4087 28 31C28 32.5913 28.6321 34.1174 29.7574 35.2426C30.8826 36.3679 32.4087 37 34 37H35V45H33C31.9391 45 30.9217 44.5786 30.1716 43.8284C29.4214 43.0783 29 42.0609 29 41C29 40.7348 28.8946 40.4804 28.7071 40.2929C28.5196 40.1054 28.2652 40 28 40C27.7348 40 27.4804 40.1054 27.2929 40.2929C27.1054 40.4804 27 40.7348 27 41C27.0017 42.5908 27.6343 44.116 28.7592 45.2408C29.884 46.3657 31.4092 46.9983 33 47H35V49C35 49.2652 35.1054 49.5196 35.2929 49.7071C35.4804 49.8946 35.7348 50 36 50C36.2652 50 36.5196 49.8946 36.7071 49.7071C36.8946 49.5196 37 49.2652 37 49V47H39C40.5913 47 42.1174 46.3679 43.2426 45.2426C44.3679 44.1174 45 42.5913 45 41C45 39.4087 44.3679 37.8826 43.2426 36.7574C42.1174 35.6321 40.5913 35 39 35ZM34 35C32.9391 35 31.9217 34.5786 31.1716 33.8284C30.4214 33.0783 30 32.0609 30 31C30 29.9391 30.4214 28.9217 31.1716 28.1716C31.9217 27.4214 32.9391 27 34 27H35V35H34ZM39 45H37V37H39C40.0609 37 41.0783 37.4214 41.8284 38.1716C42.5786 38.9217 43 39.9391 43 41C43 42.0609 42.5786 43.0783 41.8284 43.8284C41.0783 44.5786 40.0609 45 39 45Z" fill="#E27000"/>
</svg>
