<svg width="24" height="24" viewBox="0 0 24 24" fill="none" xmlns="http://www.w3.org/2000/svg">
<rect width="24" height="24" rx="4.78125" fill="#252B37"/>
<path fill-rule="evenodd" clip-rule="evenodd" d="M6.63959 16.9506C5.77594 16.0186 5.20432 14.9189 4.9185 13.7663C8.31098 13.5737 9.43248 11.312 10.5105 9.12803C11.2219 7.68654 11.9147 6.28544 13.437 5.77905C14.6144 5.38761 15.9037 5.71381 16.8326 6.53708C17.0127 6.69552 17.1867 6.86638 17.3514 7.04657C17.5191 7.22676 17.6745 7.41316 17.8174 7.60266C18.5661 8.59369 18.7898 9.9047 18.3082 11.048C17.6869 12.5236 16.2361 13.1046 14.7418 13.701C12.4801 14.6051 10.1377 15.5433 9.68102 18.914C8.5533 18.5381 7.50325 17.8826 6.63959 16.9475V16.9506ZM4.72589 12.6044C4.54881 10.4453 5.32858 8.2271 7.04346 6.6427C8.64028 5.16393 10.7217 4.53949 12.7287 4.74143C11.0573 5.40625 10.2744 6.98754 9.47287 8.61233C8.54398 10.4919 7.58091 12.4397 4.72589 12.6044ZM19.2868 11.8339C19.3334 13.8502 18.5443 15.8757 16.9475 17.3545C15.2326 18.9389 12.9617 19.5447 10.8243 19.1967C11.2126 16.3635 13.2288 15.5557 15.1736 14.7759C16.8543 14.1018 18.4915 13.4463 19.2868 11.8308V11.8339Z" fill="white"/>
<path d="M11.9954 20.9985C16.9659 20.9985 20.9954 16.9691 20.9954 11.9985C20.9954 7.02797 16.9659 2.99854 11.9954 2.99854C7.0248 2.99854 2.99536 7.02797 2.99536 11.9985C2.99536 16.9691 7.0248 20.9985 11.9954 20.9985Z" stroke="white" stroke-width="0.431826" stroke-miterlimit="10"/>
</svg>
